<svg width="34" height="27" viewBox="0 0 34 27" fill="none" xmlns="http://www.w3.org/2000/svg">
<path d="M20.2748 13.7447L14.9446 16.9541V10.5354L20.2748 13.7447Z" fill="white" stroke="white" stroke-width="3" stroke-linecap="round" stroke-linejoin="round"/>
<path d="M2 14.879V12.6082C2 7.96212 2 5.6391 3.37897 4.1444C4.75795 2.64969 6.92895 2.58499 11.2709 2.45559C13.3284 2.39428 15.4301 2.35034 17.229 2.35034C19.0278 2.35034 21.1296 2.39428 23.187 2.45559C27.529 2.58499 29.7 2.64969 31.079 4.1444C32.458 5.6391 32.458 7.96212 32.458 12.6082V14.879C32.458 19.525 32.458 21.8481 31.079 23.3427C29.7 24.8374 27.5291 24.9021 23.1872 25.0316C21.1296 25.0929 19.0278 25.1368 17.229 25.1368C15.4301 25.1368 13.3283 25.0929 11.2708 25.0316C6.92888 24.9021 4.75792 24.8374 3.37895 23.3427C2 21.8481 2 19.525 2 14.879Z" stroke="white" stroke-width="3"/>
</svg>
