<svg width="32" height="30" viewBox="0 0 32 30" fill="none" xmlns="http://www.w3.org/2000/svg">
<path d="M28.8104 0.252685C28.4168 0.271976 28.0461 0.392546 27.7165 0.527585H27.712C27.3778 0.667446 25.7896 1.37158 23.3775 2.43742C20.9654 3.50808 17.8347 4.89705 14.7269 6.27637C8.52043 9.03019 2.41923 11.7406 2.41923 11.7406L2.49246 11.7117C2.49246 11.7117 2.07138 11.8564 1.63198 12.1747C1.40771 12.329 1.16055 12.5412 0.945425 12.874C0.730304 13.2067 0.556376 13.718 0.620455 14.2436C0.725727 15.1359 1.27497 15.6712 1.6686 15.9654C2.0668 16.2644 2.44669 16.4043 2.44669 16.4043H2.45585L8.17715 18.4347C8.43346 19.3028 9.921 24.4535 10.278 25.6399C10.4886 26.3489 10.6945 26.7926 10.9508 27.1302C11.0744 27.3038 11.2209 27.4485 11.3948 27.5642C11.4635 27.6076 11.5367 27.6414 11.6099 27.6703C11.6328 27.6848 11.6557 27.6896 11.6832 27.6945L11.6237 27.68C11.642 27.6848 11.6557 27.6993 11.6694 27.7041C11.7152 27.7186 11.7472 27.7234 11.8067 27.733C12.713 28.0224 13.4407 27.4292 13.4407 27.4292L13.4819 27.3954L16.8598 24.1545L22.5216 28.7314L22.6498 28.7892C23.8306 29.3342 25.0252 29.0304 25.6569 28.495C26.2931 27.9549 26.5402 27.2652 26.5402 27.2652L26.5814 27.1543L30.9571 3.53702C31.0807 2.95346 31.1127 2.40848 30.9754 1.87797C30.8381 1.34746 30.4856 0.850713 30.06 0.585458C29.6297 0.315381 29.2041 0.233394 28.8104 0.252685ZM28.6914 2.78466C28.6869 2.86182 28.7006 2.85218 28.6686 3.00168V3.01615L24.3341 26.3875C24.3158 26.4212 24.2838 26.4936 24.1968 26.5659C24.1053 26.6431 24.032 26.6913 23.6521 26.5322L16.7271 20.9377L12.5436 24.9551L13.4224 19.0423C13.4224 19.0423 24.27 8.38876 24.7369 7.93059C25.2037 7.47242 25.0481 7.37597 25.0481 7.37597C25.0802 6.81652 24.3433 7.21199 24.3433 7.21199L10.0766 16.5248L10.072 16.5007L3.23395 14.0748V14.07C3.22937 14.07 3.22021 14.0652 3.21564 14.0652C3.22021 14.0652 3.25225 14.0507 3.25225 14.0507L3.28887 14.0314L3.32549 14.017C3.32549 14.017 9.43126 11.3066 15.6377 8.55273C18.7455 7.17341 21.8762 5.78444 24.2838 4.71378C26.6913 3.64794 28.4717 2.86665 28.5724 2.82324C28.6686 2.78466 28.6228 2.78466 28.6914 2.78466Z" fill="white"/>
</svg>
