<svg width="44" height="57" viewBox="0 0 44 57" fill="none" xmlns="http://www.w3.org/2000/svg">
<path d="M43.9935 51.8441L42.2555 15.9879H33.5726V13.0932C33.5726 5.87327 28.4101 0 22.0642 0C15.7182 0 10.5557 5.87356 10.5557 13.0932V15.9879H1.49705L0.00175702 51.9991L0.00024332 52.0615C-0.0120317 53.3574 0.440644 54.6294 1.24152 55.5496C2.04265 56.471 3.15567 57 4.29524 57H39.7051C40.8795 57 42.0168 56.4434 42.8247 55.4724C43.6323 54.5014 44.0584 53.179 43.9935 51.8441ZM13.5573 13.0932C13.5573 7.75655 17.3734 3.41487 22.0642 3.41487C26.7547 3.41487 30.571 7.75655 30.571 13.0932V15.9879H13.5571V13.0932H13.5573ZM40.6445 53.1246C40.4007 53.417 40.0585 53.5849 39.7048 53.5849H4.295C3.9518 53.5849 3.61685 53.4258 3.37511 53.1476C3.13913 52.8769 3.00362 52.5044 3.00136 52.1225L4.35987 19.4028H10.5552V23.7271C10.5552 24.6702 11.2271 25.4345 12.056 25.4345C12.885 25.4345 13.5568 24.6702 13.5568 23.7271V19.4028H30.5707V23.7271C30.5707 24.6702 31.2426 25.4345 32.0715 25.4345C32.9005 25.4345 33.5721 24.6702 33.5721 23.7271V19.4028H39.4142L40.9957 52.0325C41.016 52.4343 40.8877 52.8324 40.6445 53.1246Z" fill="white"/>
</svg>
