<svg width="31" height="21" viewBox="0 0 31 21" fill="none" xmlns="http://www.w3.org/2000/svg">
<path fill-rule="evenodd" clip-rule="evenodd" d="M30.7577 17.0263C30.048 15.52 29.1127 14.144 27.988 12.9512C27.6053 12.4823 27.1565 12.0196 26.8061 11.6586L26.7572 11.6081C26.5765 11.4217 26.4272 11.267 26.3051 11.1337C27.8429 8.88038 29.1592 6.4676 30.2332 3.93247L30.2765 3.83018L30.3069 3.72284C30.4479 3.22386 30.6105 2.27502 30.0355 1.41752C29.4411 0.531226 28.4892 0.371383 27.8519 0.371383H24.9196C24.3084 0.341861 23.703 0.515992 23.1902 0.870013C22.6734 1.2267 22.2782 1.74699 22.0606 2.35518C21.4292 3.94013 20.639 5.44769 19.7046 6.85264V3.23186C19.7046 2.76383 19.6628 1.98089 19.1872 1.32006C18.6177 0.528834 17.7942 0.371383 17.2225 0.371383H12.5697C11.9703 0.35678 11.3873 0.582624 10.9392 1.00423C10.4804 1.43598 10.1992 2.03908 10.1553 2.68563L10.1512 2.74687V2.80828C10.1512 3.47582 10.4022 3.96822 10.6027 4.2779C10.6925 4.41654 10.7886 4.54275 10.8492 4.62246L10.8633 4.64085C10.9279 4.72586 10.9711 4.78259 11.0145 4.8447C11.1284 5.00808 11.2924 5.25998 11.3388 5.91181V7.93713C10.5367 6.54773 9.69048 4.69882 9.05381 2.72415L9.04403 2.69384L9.0332 2.66393C8.87446 2.22583 8.61984 1.58838 8.10989 1.10057C7.51414 0.530704 6.80951 0.371383 6.16868 0.371383H3.1935C2.5452 0.371383 1.76364 0.531199 1.18047 1.1794C0.607004 1.81684 0.542053 2.58064 0.542053 2.98674V3.1698L0.578642 3.34874C1.40271 7.37903 3.10071 11.1533 5.53924 14.3763C6.6448 16.2133 8.14286 17.7531 9.91424 18.8722C11.7139 20.0094 13.7442 20.6795 15.8378 20.8278L15.8924 20.8316H15.9472C16.8943 20.8316 17.8817 20.7455 18.6242 20.2241C19.6259 19.5208 19.7046 18.4406 19.7046 17.9023V16.3377C19.9617 16.5566 20.2806 16.8514 20.671 17.2475C21.143 17.7453 21.5188 18.1766 21.8411 18.5531L22.0131 18.7547L22.0142 18.7558C22.2645 19.0495 22.5108 19.3386 22.7352 19.5762C23.0171 19.8749 23.3648 20.2041 23.8018 20.4472C24.275 20.7105 24.7716 20.8295 25.2992 20.8295H28.2764C28.9036 20.8295 29.8032 20.6732 30.4357 19.9006C31.1249 19.0585 31.0724 18.0265 30.8556 17.2848L30.8166 17.1514L30.7577 17.0263ZM23.2944 17.1715C22.9593 16.78 22.5552 16.316 22.0445 15.7779L22.0403 15.7735C20.2707 13.9757 19.4437 13.6625 18.8591 13.6625C18.5481 13.6625 18.204 13.6993 17.9808 13.9924C17.8753 14.1307 17.82 14.2976 17.7889 14.4715C17.7579 14.6452 17.7472 14.8491 17.7472 15.0814V17.9023C17.7472 18.2527 17.6925 18.3998 17.5388 18.5079C17.3339 18.6517 16.8961 18.7683 15.9581 18.7691C14.1777 18.6412 12.4514 18.0705 10.9208 17.1034C9.3871 16.1345 8.09381 14.7954 7.14745 13.1965L7.13715 13.1792L7.12496 13.1631C4.85272 10.1831 3.2694 6.68727 2.49984 2.95193C2.50402 2.77186 2.54104 2.66503 2.60103 2.59835C2.66284 2.52964 2.81262 2.43388 3.1935 2.43388H6.16868C6.49964 2.43388 6.67092 2.50974 6.7942 2.62766C6.93396 2.76135 7.05517 2.98838 7.20244 3.39374C7.93269 5.65697 8.92021 7.7735 9.85535 9.32973C10.3227 10.1076 10.7828 10.7551 11.1972 11.2125C11.4041 11.441 11.607 11.6302 11.8006 11.7649C11.988 11.8951 12.2005 11.9978 12.419 11.9978C12.5343 11.9978 12.6691 11.9853 12.799 11.9246C12.9387 11.8596 13.0471 11.751 13.1237 11.6054C13.2591 11.348 13.2962 10.9667 13.2962 10.4671V5.84203L13.2955 5.83118C13.2279 4.70596 12.9055 4.07301 12.5915 3.62304C12.5227 3.52442 12.4549 3.43535 12.3955 3.3574L12.3793 3.33605C12.3141 3.25039 12.2622 3.18117 12.2196 3.11535C12.1415 2.99475 12.1112 2.91066 12.1087 2.82056C12.1189 2.71361 12.1667 2.61438 12.243 2.54258C12.3222 2.46805 12.4259 2.42925 12.532 2.43388H17.2225C17.4914 2.43388 17.582 2.50302 17.6275 2.56635C17.6919 2.65575 17.7472 2.84169 17.7472 3.23186V9.4587C17.7472 10.1983 18.0708 10.6991 18.5407 10.6991C19.0815 10.6991 19.4713 10.3534 20.153 9.63512L20.1643 9.62315L20.1745 9.60995C21.7023 7.64687 22.951 5.45976 23.8804 3.11738L23.8862 3.09982C23.9562 2.89284 24.0884 2.71565 24.2628 2.59525C24.4372 2.47487 24.6441 2.41791 24.8521 2.43307L24.8635 2.43388H27.8519C28.2594 2.43388 28.3936 2.54318 28.4369 2.60782C28.483 2.67658 28.5151 2.82397 28.4368 3.11301C27.3653 5.63807 26.0403 8.03489 24.4849 10.2632L24.4751 10.2789C24.3242 10.5223 24.1586 10.7915 24.1346 11.1006C24.1089 11.4325 24.2452 11.7343 24.4836 12.0577C24.6574 12.3285 25.0159 12.6982 25.3796 13.0733L25.4139 13.1086C25.7952 13.5019 26.2082 13.9279 26.5398 14.3404L26.5487 14.3512L26.5583 14.3614C27.5468 15.4004 28.3688 16.6014 28.9922 17.9176C29.0917 18.2759 29.0308 18.459 28.9534 18.5535C28.863 18.6641 28.6602 18.767 28.2764 18.767H25.2992C25.0667 18.767 24.8872 18.7188 24.7158 18.6234C24.5371 18.5239 24.3534 18.3658 24.1229 18.1218C23.9374 17.9251 23.7346 17.6873 23.4872 17.3973C23.4259 17.3254 23.3618 17.25 23.2944 17.1715Z" fill="white"/>
</svg>
